<svg width="96" height="96" viewBox="0 0 96 96" fill="none" xmlns="http://www.w3.org/2000/svg">
<path d="M47.5 9.49998C49.0488 9.49612 49.0488 9.49612 50.6289 9.49217C60.1087 9.61449 60.1087 9.61449 64 13C65.8029 16.3483 66 18.1148 66 22C66.5917 21.942 67.1833 21.884 67.793 21.8242C68.5832 21.7791 69.3733 21.734 70.1875 21.6875C70.9648 21.6295 71.7421 21.5715 72.543 21.5117C76.3508 22.2684 77.6763 23.9386 80 27C80.9557 29.8969 81.2947 32.7874 81.625 35.8125C81.7356 36.674 81.8462 37.5355 81.9602 38.4231C82.1972 40.2878 82.4248 42.1536 82.644 44.0205C83.0155 47.1301 83.4276 50.2325 83.8476 53.3359C84.1287 55.453 84.4086 57.5702 84.6875 59.6875C84.8191 60.6779 84.9508 61.6683 85.0864 62.6887C87.0514 78.3177 87.0514 78.3177 84.125 83C80.6915 86.2315 78.6117 86.1362 73.9773 86.177C72.0797 86.1962 72.0797 86.1962 70.1438 86.2159C68.756 86.224 67.3683 86.2315 65.9805 86.2383C64.9334 86.2444 64.9334 86.2444 63.8653 86.2506C60.1702 86.2715 56.4751 86.2858 52.78 86.2952C48.9667 86.3062 45.1539 86.3406 41.3407 86.3803C38.4058 86.4065 35.4711 86.4148 32.5361 86.4184C31.1307 86.4233 29.7253 86.4349 28.32 86.4535C26.3505 86.4779 24.3806 86.4745 22.4109 86.47C20.7311 86.4788 20.7311 86.4788 19.0175 86.4877C15.3176 85.8897 13.6642 84.5827 11 82C8.00895 76.0179 10.1959 66.7286 10.9531 60.2656C11.1054 58.9431 11.1054 58.9431 11.2607 57.5939C11.476 55.7483 11.6947 53.903 11.9165 52.0581C12.2506 49.2447 12.561 46.4294 12.8711 43.6133C13.0845 41.8097 13.2993 40.0063 13.5156 38.2031C13.6487 36.9514 13.6487 36.9514 13.7845 35.6744C14.4511 30.41 15.6233 27.1328 19 23C21.4054 21.7973 22.95 21.8993 25.625 21.9375C26.8509 21.951 26.8509 21.951 28.1016 21.9648C29.0413 21.9822 29.0413 21.9822 30 22C30.0619 20.9481 30.1237 19.8962 30.1875 18.8125C32.2709 9.03633 39.0082 9.26675 47.5 9.49998ZM38 16C35.5088 19.7368 35.7935 21.7445 35.875 26.1875C35.9021 28.0959 35.9021 28.0959 35.9297 30.043C35.9529 31.0188 35.9761 31.9946 36 33C34.35 33 32.7 33 31 33C30.67 31.35 30.34 29.7 30 28C26.5834 27.8332 26.5834 27.8332 23 28C19.9562 31.0438 20.182 34.8057 19.7109 38.918C19.6028 39.8086 19.4946 40.6992 19.3832 41.6168C19.1557 43.5052 18.9323 45.3941 18.7129 47.2834C18.3782 50.1596 18.0301 53.0339 17.6797 55.9082C17.4601 57.7447 17.2413 59.5813 17.0234 61.418C16.9203 62.2724 16.8172 63.1268 16.711 64.0071C16.1726 68.686 15.7055 73.2844 16 78C18.6719 80.6719 19.9703 80.2531 23.7031 80.2588C24.8978 80.2651 26.0924 80.2714 27.3232 80.2779C28.6191 80.2738 29.9149 80.2698 31.25 80.2656C32.5876 80.267 33.9251 80.2689 35.2627 80.2714C38.0671 80.2744 40.8714 80.2701 43.6758 80.2607C47.274 80.2493 50.872 80.2559 54.4703 80.2679C57.2326 80.2751 59.9949 80.2728 62.7572 80.2676C64.7304 80.2656 66.7036 80.2717 68.6767 80.2779C69.8714 80.2716 71.066 80.2653 72.2969 80.2588C73.3523 80.2572 74.4077 80.2556 75.4951 80.254C78.1723 80.2492 78.1723 80.2492 80 78C80.0931 75.1807 80.0931 75.1807 79.7461 71.8789C79.6363 70.6171 79.5266 69.3552 79.4136 68.0552C78.8136 62.0158 78.1072 55.992 77.3254 49.9739C77.0588 47.9086 76.8036 45.8421 76.5488 43.7754C76.3783 42.4426 76.2071 41.1099 76.0351 39.7773C75.809 38.0022 75.809 38.0022 75.5784 36.1911C75.0392 33.2163 74.2377 30.7477 73 28C70.69 28 68.38 28 66 28C65.67 29.65 65.34 31.3 65 33C63.68 32.67 62.36 32.34 61 32C60.505 30.02 60.505 30.02 60 28C55.05 27.67 50.1 27.34 45 27C44.67 25.35 44.34 23.7 44 22C49.28 22 54.56 22 60 22C59.5547 17.3698 59.5547 17.3698 58 16C54.6956 15.7223 51.3772 15.7682 48.0625 15.75C47.1299 15.7294 46.1972 15.7087 45.2363 15.6875C43.8992 15.6797 43.8992 15.6797 42.5351 15.6719C41.7141 15.6625 40.893 15.6532 40.0471 15.6435C39.3716 15.7612 38.696 15.8788 38 16Z" fill="#9B20DA"/>
<path d="M44 42C44.9075 42.3712 45.815 42.7425 46.75 43.125C47.4925 43.4137 48.235 43.7025 49 44C49.99 43.34 50.98 42.68 52 42C56.2848 41.4445 58.297 41.5363 61.9375 43.9375C64.724 48.0749 64.8976 51.1496 64 56C61.3649 61.614 56.2284 66.6667 51 70C47.5125 70.4904 45.6844 70.3743 42.5859 68.6796C32.5906 60.5209 32.5906 60.5209 31.5938 54.5781C31.3278 50.0843 31.5431 47.6923 34.0625 43.875C37.7361 41.5301 39.7083 41.4635 44 42Z" fill="#9B20DA"/>
</svg>
