<?xml version="1.0" encoding="UTF-8"?>
<svg version="1.1" xmlns="http://www.w3.org/2000/svg" width="96" height="96">
<path d="M0 0 C1.08003296 0.00326294 1.08003296 0.00326294 2.18188477 0.0065918 C4.37697108 0.0097488 6.57070573 -0.01369198 8.765625 -0.0390625 C10.15950351 -0.04133581 11.55338564 -0.04203884 12.94726562 -0.04101562 C14.85270142 -0.04548706 14.85270142 -0.04548706 16.79663086 -0.05004883 C19.95117188 0.32226562 19.95117188 0.32226562 21.86035156 1.68530273 C23.67303149 4.40553974 23.38090298 6.08275423 22.95117188 9.32226562 C22.02949798 11.78117784 20.96969204 14.15841537 19.90283203 16.55786133 C13.96858294 30.12136809 12.5636964 42.84252173 11.82495117 57.47314453 C11.78330338 58.23581131 11.74165558 58.99847809 11.69874573 59.78425598 C11.62408976 61.22439855 11.56331267 62.66535034 11.5186615 64.10673523 C11.38166655 66.93989186 11.24509169 68.90091687 9.59912109 71.26049805 C7.0243338 72.91942396 4.93229779 72.63279957 1.95117188 72.32226562 C-1.04882812 70.32226562 -1.04882812 70.32226562 -2.04882812 67.32226562 C-2.23233664 64.94466522 -2.37097145 62.56352054 -2.48632812 60.18164062 C-3.37541852 44.66760651 -4.34525391 30.62805887 -11.08789062 16.34082031 C-13.50214056 11.22237376 -14.73565159 8.03379069 -13.04882812 2.32226562 C-9.60779247 -1.11877003 -4.64831117 0.01861075 0 0 Z M-8.04882812 6.32226562 C-5.73882812 12.59226562 -3.42882812 18.86226562 -1.04882812 25.32226562 C2.58117188 25.32226562 6.21117188 25.32226562 9.95117188 25.32226562 C11.11986763 22.34388028 12.28621954 19.36461476 13.45117188 16.38476562 C13.78503906 15.53462891 14.11890625 14.68449219 14.46289062 13.80859375 C14.77871094 12.99970703 15.09453125 12.19082031 15.41992188 11.35742188 C15.71318359 10.60855713 16.00644531 9.85969238 16.30859375 9.08813477 C17.00816382 7.47883751 17.00816382 7.47883751 16.95117188 6.32226562 C8.70117188 6.32226562 0.45117188 6.32226562 -8.04882812 6.32226562 Z " fill="#586274" transform="translate(27.048828125,11.677734375)"/>
<path d="M0 0 C1.66323853 1.12255859 1.66323853 1.12255859 3 3 C3.38095093 5.84619141 3.38095093 5.84619141 3.38818359 9.3515625 C3.39764008 10.66302246 3.40709656 11.97448242 3.4168396 13.32568359 C3.41146992 14.75879213 3.40531698 16.19189792 3.3984375 17.625 C3.40045831 19.09326319 3.40336981 20.5615254 3.40713501 22.02978516 C3.41155806 25.10654255 3.4051282 28.18303861 3.39111328 31.25976562 C3.37402107 35.20440471 3.3838624 39.14843148 3.40183067 43.0930481 C3.41266922 46.12480283 3.40922192 49.15641229 3.4014473 52.18817139 C3.39944547 53.6426399 3.40190398 55.09712158 3.40888596 56.55157471 C3.41650067 58.58385976 3.40283742 60.61619102 3.38818359 62.6484375 C3.38579681 63.80520996 3.38341003 64.96198242 3.38095093 66.15380859 C3 69 3 69 1.59732056 70.87271118 C-0.42838676 72.30232855 -1.65771515 72.38683065 -4.125 72.3984375 C-4.91390625 72.40230469 -5.7028125 72.40617187 -6.515625 72.41015625 C-7.74539062 72.39275391 -7.74539062 72.39275391 -9 72.375 C-10.22976562 72.39240234 -10.22976562 72.39240234 -11.484375 72.41015625 C-12.27328125 72.40628906 -13.0621875 72.40242188 -13.875 72.3984375 C-14.59429687 72.39505371 -15.31359375 72.39166992 -16.0546875 72.38818359 C-18.61444902 71.87738781 -19.48167463 71.10927281 -21 69 C-21.38818359 66.87109375 -21.38818359 66.87109375 -21.3984375 64.4375 C-21.40230469 63.55835938 -21.40617187 62.67921875 -21.41015625 61.7734375 C-21.39855469 60.85820313 -21.38695312 59.94296875 -21.375 59 C-21.39240234 57.62714844 -21.39240234 57.62714844 -21.41015625 56.2265625 C-21.40628906 55.34742188 -21.40242188 54.46828125 -21.3984375 53.5625 C-21.39336182 52.35787109 -21.39336182 52.35787109 -21.38818359 51.12890625 C-21 49 -21 49 -18 46 C-13.05 46 -8.1 46 -3 46 C-3.495 26.695 -3.495 26.695 -4 7 C-9.17554258 10.80114848 -9.17554258 10.80114848 -14 15 C-14.15620555 16.41327947 -14.25056173 17.8335459 -14.31640625 19.25390625 C-14.35830078 20.10791016 -14.40019531 20.96191406 -14.44335938 21.84179688 C-14.48267578 22.73962891 -14.52199219 23.63746094 -14.5625 24.5625 C-14.60568359 25.46419922 -14.64886719 26.36589844 -14.69335938 27.29492188 C-14.79978142 29.52978485 -14.90179988 31.76476308 -15 34 C-14.01 34.33 -13.02 34.66 -12 35 C-12.495 37.475 -12.495 37.475 -13 40 C-18.75 39.25 -18.75 39.25 -21 37 C-21.45609055 33.24870588 -21.3240046 29.46331021 -21.3125 25.6875 C-21.33666992 24.11838867 -21.33666992 24.11838867 -21.36132812 22.51757812 C-21.36197266 21.50501953 -21.36261719 20.49246094 -21.36328125 19.44921875 C-21.36626221 18.52455811 -21.36924316 17.59989746 -21.37231445 16.6472168 C-20.78514432 12.47234092 -18.93118806 9.84178051 -15.84375 7.05078125 C-14.68359375 6.19033203 -14.68359375 6.19033203 -13.5 5.3125 C-12.33984375 4.44044922 -12.33984375 4.44044922 -11.15625 3.55078125 C-7.09232246 0.62799279 -5.06460806 -0.52756334 0 0 Z " fill="#586274" transform="translate(82,12)"/>
</svg>
