<svg width="96" height="96" viewBox="0 0 96 96" fill="none" xmlns="http://www.w3.org/2000/svg">
<path d="M27.0488 11.6777C28.1289 11.681 28.1289 11.681 29.2307 11.6843C31.4258 11.6875 33.6195 11.664 35.8144 11.6386C37.2083 11.6364 38.6022 11.6357 39.9961 11.6367C41.9015 11.6322 41.9015 11.6322 43.8455 11.6277C47 12 47 12 48.9092 13.363C50.7219 16.0833 50.4297 17.7605 50 21C49.0783 23.4589 48.0185 25.8361 46.9517 28.2356C41.0174 41.7991 39.6125 54.5202 38.8738 69.1509C38.8321 69.9135 38.7905 70.6762 38.7476 71.462C38.6729 72.9021 38.6121 74.3431 38.5675 75.7844C38.4305 78.6176 38.2939 80.5786 36.6479 82.9382C34.0732 84.5971 31.9811 84.3105 29 84C26 82 26 82 25 79C24.8165 76.6224 24.6779 74.2412 24.5625 71.8594C23.6734 56.3453 22.7036 42.3058 15.9609 28.0185C13.5467 22.9001 12.3132 19.7115 14 14C17.441 10.5589 22.4005 11.6963 27.0488 11.6777ZM19 18C21.31 24.27 23.62 30.54 26 37C29.63 37 33.26 37 37 37C38.1687 34.0216 39.335 31.0423 40.5 28.0625C40.8339 27.2123 41.1677 26.3622 41.5117 25.4863C41.8275 24.6774 42.1434 23.8685 42.4687 23.0351C42.762 22.2863 43.0553 21.5374 43.3574 20.7658C44.057 19.1565 44.057 19.1565 44 18C35.75 18 27.5 18 19 18Z" fill="#E21C61"/>
<path d="M82 12C83.6632 13.1226 83.6632 13.1226 85 15C85.381 17.8462 85.381 17.8462 85.3882 21.3516C85.3976 22.6631 85.4071 23.9745 85.4168 25.3257C85.4115 26.7588 85.4053 28.1919 85.3984 29.625C85.4005 31.0933 85.4034 32.5616 85.4071 34.0298C85.4116 37.1066 85.4051 40.1831 85.3911 43.2598C85.374 47.2044 85.3839 51.1485 85.4018 55.0931C85.4127 58.1248 85.4092 61.1565 85.4014 64.1882C85.3994 65.6427 85.4019 67.0972 85.4089 68.5516C85.4165 70.5839 85.4028 72.6162 85.3882 74.6485C85.3858 75.8053 85.3834 76.962 85.381 78.1538C85 81 85 81 83.5973 82.8727C81.5716 84.3024 80.3423 84.3869 77.875 84.3985C77.0861 84.4023 76.2972 84.4062 75.4844 84.4102C74.2546 84.3928 74.2546 84.3928 73 84.375C71.7702 84.3924 71.7702 84.3924 70.5156 84.4102C69.7267 84.4063 68.9378 84.4025 68.125 84.3985C67.4057 84.3951 66.6864 84.3917 65.9453 84.3882C63.3856 83.8774 62.5183 83.1093 61 81C60.6118 78.8711 60.6118 78.8711 60.6016 76.4375C60.5977 75.5584 60.5938 74.6793 60.5898 73.7735C60.6014 72.8582 60.613 71.943 60.625 71C60.6076 69.6272 60.6076 69.6272 60.5898 68.2266C60.5937 67.3475 60.5976 66.4683 60.6016 65.5625C60.6066 64.3579 60.6066 64.3579 60.6118 63.1289C61 61 61 61 64 58C68.95 58 73.9 58 79 58C78.505 38.695 78.505 38.695 78 19C72.8245 22.8012 72.8245 22.8012 68 27C67.8438 28.4133 67.7494 29.8336 67.6836 31.2539C67.6417 32.108 67.5998 32.962 67.5566 33.8418C67.5173 34.7397 67.478 35.6375 67.4375 36.5625C67.3943 37.4642 67.3511 38.3659 67.3066 39.295C67.2002 41.5298 67.0982 43.7648 67 46C67.99 46.33 68.98 46.66 70 47C69.505 49.475 69.505 49.475 69 52C63.25 51.25 63.25 51.25 61 49C60.5439 45.2487 60.676 41.4634 60.6875 37.6875C60.6633 36.1184 60.6633 36.1184 60.6387 34.5176C60.638 33.5051 60.6374 32.4925 60.6367 31.4493C60.6337 30.5246 60.6308 29.5999 60.6277 28.6473C61.2149 24.4724 63.0688 21.8418 66.1562 19.0508C67.3164 18.1904 67.3164 18.1904 68.5 17.3125C69.6602 16.4405 69.6602 16.4405 70.8438 15.5508C74.9077 12.628 76.9354 11.4725 82 12Z" fill="#E21C61"/>
</svg>
