<?xml version="1.0" encoding="UTF-8"?>
<svg version="1.1" xmlns="http://www.w3.org/2000/svg" width="96" height="96">
<path d="M0 0 C0.84460281 -0.01606293 1.68920563 -0.03212585 2.55940247 -0.04867554 C6.42387081 -0.09314436 10.28816764 -0.13419111 14.15283203 -0.15722656 C16.19070862 -0.17378543 18.22852715 -0.20107449 20.26611328 -0.23925781 C23.2046521 -0.2940413 26.14182974 -0.31590267 29.08081055 -0.33056641 C29.98930252 -0.35323578 30.89779449 -0.37590515 31.83381653 -0.39926147 C36.37503786 -0.3841072 38.28633694 -0.28449684 41.98852539 2.57202148 C44.06874252 5.41675154 44.47521774 6.55234602 44.2175293 10.00537109 C44.17241211 10.79556641 44.12729492 11.58576172 44.08081055 12.39990234 C43.99379883 13.28742187 43.99379883 13.28742187 43.9050293 14.19287109 C46.2150293 14.52287109 48.5250293 14.85287109 50.9050293 15.19287109 C50.9050293 16.84287109 50.9050293 18.49287109 50.9050293 20.19287109 C32.7550293 20.19287109 14.6050293 20.19287109 -4.0949707 20.19287109 C-3.7649707 21.18287109 -3.4349707 22.17287109 -3.0949707 23.19287109 C-2.9603813 24.53102536 -2.8713244 25.87410198 -2.8137207 27.21777344 C-2.77698242 28.02225922 -2.74024414 28.826745 -2.70239258 29.65560913 C-2.66694336 30.52126495 -2.63149414 31.38692078 -2.5949707 32.27880859 C-2.55436523 33.17274323 -2.51375977 34.06667786 -2.47192383 34.98770142 C-2.34220511 37.84759369 -2.21798953 40.70768328 -2.0949707 43.56787109 C-1.93273553 47.32589689 -1.7652918 51.08364168 -1.5949707 54.84130859 C-1.55952148 55.70291595 -1.52407227 56.56452332 -1.48754883 57.45223999 C-1.30587321 61.46170342 -1.05340455 65.27627111 -0.0949707 69.19287109 C4.72883732 69.21752299 9.55260896 69.23570802 14.37646484 69.24780273 C16.01872394 69.25284283 17.66097853 69.25967487 19.30322266 69.26831055 C21.65878408 69.28039035 24.01428638 69.28610248 26.36987305 69.29052734 C27.10842026 69.29568863 27.84696747 69.30084991 28.6078949 69.3061676 C30.37401018 69.30636359 32.14000075 69.25481828 33.9050293 69.19287109 C35.78361612 67.31428427 35.25877702 64.11268009 35.4050293 61.59521484 C35.4659375 60.59368126 35.4659375 60.59368126 35.52807617 59.57191467 C35.6581249 57.42496961 35.78200732 55.2777294 35.9050293 53.13037109 C36.89697462 36.11424649 36.89697462 36.11424649 37.9050293 29.19287109 C39.56117587 28.81068342 41.22959954 28.47892008 42.9050293 28.19287109 C43.9050293 29.19287109 43.9050293 29.19287109 43.94262695 31.6862793 C43.90186035 32.7777124 43.86109375 33.86914551 43.8190918 34.99365234 C43.77526367 36.19957031 43.73143555 37.40548828 43.6862793 38.64794922 C43.6347168 39.92089844 43.5831543 41.19384766 43.5300293 42.50537109 C43.48620117 43.73578125 43.44237305 44.96619141 43.3972168 46.23388672 C43.25821285 49.8885322 43.08937937 53.54024833 42.9050293 57.19287109 C42.85314453 58.32128418 42.80125977 59.44969727 42.74780273 60.61230469 C42.68367188 61.66369629 42.61954102 62.71508789 42.5534668 63.79833984 C42.50109863 64.72155029 42.44873047 65.64476074 42.39477539 66.59594727 C41.8105441 69.69388758 40.74122985 71.64216914 38.9050293 74.19287109 C35.14043232 76.70260241 32.09565673 76.5337519 27.72924805 76.56396484 C26.92646927 76.57299332 26.12369049 76.58202179 25.29658508 76.59132385 C23.59782642 76.60582747 21.89901187 76.61471338 20.20019531 76.6184082 C17.61190525 76.6302822 15.02601766 76.6794426 12.43823242 76.72998047 C10.78524923 76.73944784 9.13225143 76.74668138 7.47924805 76.75146484 C6.71029709 76.77099716 5.94134613 76.79052948 5.14909363 76.81065369 C1.25270139 76.77824171 -1.39244769 76.3916025 -4.56835938 74.03295898 C-7.49844203 70.7393411 -7.88882688 69.53745538 -8.0949707 65.19287109 C-8.14235382 64.44587952 -8.18973694 63.69888794 -8.23855591 62.92926025 C-8.40250812 60.20793387 -8.51987431 57.48719939 -8.63012695 54.76318359 C-8.6731041 53.77285126 -8.71608124 52.78251892 -8.76036072 51.76217651 C-8.89618143 48.61421124 -9.02689742 45.46605795 -9.1574707 42.31787109 C-9.24893027 40.17723166 -9.34072344 38.03660644 -9.43286133 35.89599609 C-9.65742885 30.6617797 -9.87781107 25.42739979 -10.0949707 20.19287109 C-12.4049707 20.19287109 -14.7149707 20.19287109 -17.0949707 20.19287109 C-17.0949707 18.54287109 -17.0949707 16.89287109 -17.0949707 15.19287109 C-13.6299707 14.69787109 -13.6299707 14.69787109 -10.0949707 14.19287109 C-10.1774707 13.16162109 -10.2599707 12.13037109 -10.3449707 11.06787109 C-10.05470629 6.56877269 -8.89817492 4.65565277 -6.0949707 1.19287109 C-3.8275766 0.05917404 -2.51960553 0.0435311 0 0 Z M-4.0949707 8.19287109 C-4.0949707 10.17287109 -4.0949707 12.15287109 -4.0949707 14.19287109 C9.7650293 14.19287109 23.6250293 14.19287109 37.9050293 14.19287109 C37.9050293 11.88287109 37.9050293 9.57287109 37.9050293 7.19287109 C35.81061811 5.09845991 31.23837248 6.02872608 28.34643555 6.02490234 C27.48694809 6.02157394 26.62746063 6.01824554 25.7419281 6.01481628 C23.92024268 6.00974339 22.09854794 6.00740807 20.27685547 6.00756836 C17.4828364 6.00538307 14.68921273 5.98723465 11.89526367 5.96826172 C10.12898899 5.96532769 8.36271242 5.96334296 6.59643555 5.96240234 C5.75681778 5.95521683 4.91720001 5.94803131 4.05213928 5.94062805 C-0.49739831 5.75374978 -0.49739831 5.75374978 -4.0949707 8.19287109 Z " fill="#B223E6" transform="translate(31.094970703125,9.80712890625)"/>
<path d="M0 0 C2 0.6875 2 0.6875 4 2.6875 C4.82021595 10.56991434 4.51381199 20.14606403 2 27.6875 C-6.58 27.6875 -15.16 27.6875 -24 27.6875 C-25.125 16.4375 -25.125 16.4375 -25.0625 12.0625 C-25.05347656 11.22460938 -25.04445312 10.38671875 -25.03515625 9.5234375 C-25.02355469 8.91757812 -25.01195312 8.31171875 -25 7.6875 C-24.278125 7.831875 -23.55625 7.97625 -22.8125 8.125 C-21.4203125 8.4034375 -21.4203125 8.4034375 -20 8.6875 C-19.23429687 8.95433594 -18.46859375 9.22117187 -17.6796875 9.49609375 C-14.81541127 9.97153756 -14.81541127 9.97153756 -12.17578125 7.8515625 C-11.23089844 7.01367188 -10.28601562 6.17578125 -9.3125 5.3125 C-2.74461362 -0.42884588 -2.74461362 -0.42884588 0 0 Z " fill="#B223E6" transform="translate(59,47.3125)"/>
</svg>
