<?xml version="1.0" encoding="UTF-8"?>
<svg version="1.1" xmlns="http://www.w3.org/2000/svg" width="96" height="96">
<path d="M0 0 C2.43199729 0.03446348 4.86037857 0.02057755 7.29248047 0.0012207 C16.61636305 0.00857491 23.23793213 0.49332907 30.72998047 6.56176758 C39.79762708 16.04243329 40.51077965 22.62451689 40.54443359 35.46069336 C40.55419658 37.72131362 40.58527054 39.98104574 40.61669922 42.24145508 C40.62322435 43.67504344 40.62847674 45.10863828 40.63232422 46.54223633 C40.64166992 47.84692871 40.65101562 49.15162109 40.66064453 50.49584961 C40.54301758 51.5192041 40.42539063 52.54255859 40.30419922 53.59692383 C39.31419922 54.25692383 38.32419922 54.91692383 37.30419922 55.59692383 C35.81919922 54.60692383 35.81919922 54.60692383 34.30419922 53.59692383 C33.91943359 50.61938477 33.91943359 50.61938477 33.89794922 46.83129883 C33.88711304 46.16028137 33.87627686 45.48926392 33.8651123 44.7979126 C33.83079134 42.64748597 33.81525786 40.49758842 33.80419922 38.34692383 C33.78956411 35.52871108 33.75569661 32.71166817 33.71044922 29.89379883 C33.70335938 28.63921875 33.69626953 27.38463867 33.68896484 26.09204102 C33.05238014 20.30946071 30.32955883 15.73107694 26.30419922 11.59692383 C19.38194469 6.93622575 12.58096872 6.97956201 4.46826172 7.07543945 C2.30826562 7.09688346 0.15159402 7.07557486 -2.00830078 7.05004883 C-10.63202823 7.0310674 -17.34419957 7.29486647 -23.75439453 13.63208008 C-24.20943359 14.30110352 -24.66447266 14.97012695 -25.13330078 15.65942383 C-25.60638672 16.33102539 -26.07947266 17.00262695 -26.56689453 17.69458008 C-28.90610764 21.63643746 -28.88382096 25.17763013 -29.01220703 29.67114258 C-29.03298813 30.35497513 -29.05376923 31.03880768 -29.07518005 31.74336243 C-29.14046233 33.92361593 -29.19946095 36.10398788 -29.25830078 38.28442383 C-29.30150631 39.76425369 -29.34512126 41.24407166 -29.38916016 42.72387695 C-29.49612161 46.34810005 -29.59744902 49.97245572 -29.69580078 53.59692383 C-31.35194735 53.9791115 -33.02037102 54.31087485 -34.69580078 54.59692383 C-37.37804488 51.91467973 -35.92590496 44.15415596 -35.93603516 40.2890625 C-35.94565656 38.06772195 -35.97662353 35.84734046 -36.00830078 33.6262207 C-36.08705159 23.31511058 -35.38242062 15.28797249 -27.82226562 7.55761719 C-19.58651201 -0.03610695 -10.6095892 -0.16654713 0 0 Z " fill="#576274" transform="translate(45.69580078125,13.403076171875)"/>
<path d="M0 0 C3.75412044 1.18185273 4.44300285 1.76844486 6.375 5.0625 C7.01040598 8.68542235 6.8845338 12.32710216 6.875 16 C6.90335938 16.98935547 6.93171875 17.97871094 6.9609375 18.99804688 C6.97384707 23.79717889 6.94337293 26.27641134 4.0703125 30.25 C1.375 32.0625 1.375 32.0625 -2.25 32.125 C-6.00412044 30.94314727 -6.69300285 30.35655514 -8.625 27.0625 C-9.26040598 23.43957765 -9.1345338 19.79789784 -9.125 16.125 C-9.15335938 15.13564453 -9.18171875 14.14628906 -9.2109375 13.12695312 C-9.22384707 8.32782111 -9.19337293 5.84858866 -6.3203125 1.875 C-3.625 0.0625 -3.625 0.0625 0 0 Z " fill="#586274" transform="translate(70.625,49.9375)"/>
<path d="M0 0 C3.375 1.125 3.375 1.125 5.0625 3.0703125 C6.9411146 7.44256434 6.81140764 11.41708107 6.75 16.125 C6.76160156 17.01445313 6.77320313 17.90390625 6.78515625 18.8203125 C6.76348121 23.66107188 6.69308577 27.29998446 3.375 31.125 C0 32.25 0 32.25 -3.625 32.125 C-6.67541916 30.05887307 -8.36640515 28.41744706 -9.10400391 24.73095703 C-9.29949004 21.84611818 -9.30675375 19.01565747 -9.25 16.125 C-9.26933594 15.14015625 -9.28867187 14.1553125 -9.30859375 13.140625 C-9.27633823 8.36680833 -9.17869696 5.88633332 -6.3125 1.9453125 C-3.625 0.125 -3.625 0.125 0 0 Z " fill="#576274" transform="translate(27.625,49.875)"/>
</svg>
