<svg width="96" height="96" viewBox="0 0 96 96" fill="none" xmlns="http://www.w3.org/2000/svg">
<path d="M45.6958 13.4031C48.1278 13.4375 50.5562 13.4236 52.9883 13.4043C62.3121 13.4116 68.9337 13.8964 76.4258 19.9648C85.4934 29.4455 86.2066 36.0276 86.2402 48.8638C86.25 51.1244 86.281 53.3841 86.3125 55.6445C86.319 57.0781 86.3243 58.5117 86.3281 59.9453C86.3374 61.25 86.3468 62.5547 86.3564 63.8989C86.2388 64.9223 86.1212 65.9456 86 67C85.01 67.66 84.02 68.32 83 69C81.515 68.01 81.515 68.01 80 67C79.6152 64.0225 79.6152 64.0225 79.5937 60.2344C79.5829 59.5634 79.5721 58.8923 79.5609 58.201C79.5266 56.0506 79.511 53.9007 79.5 51.75C79.4853 48.9318 79.4515 46.1147 79.4062 43.2969C79.3991 42.0423 79.392 40.7877 79.3847 39.4951C78.7482 33.7125 76.0253 29.1341 72 25C65.0777 20.3393 58.2767 20.3826 50.164 20.4785C48.004 20.5 45.8474 20.4786 43.6875 20.4531C35.0637 20.4341 28.3516 20.6979 21.9414 27.0352C21.4863 27.7042 21.0313 28.3732 20.5625 29.0625C20.0894 29.7341 19.6163 30.4057 19.1289 31.0977C16.7897 35.0395 16.812 38.5807 16.6836 43.0742C16.6628 43.758 16.642 44.4419 16.6206 45.1464C16.5553 47.3267 16.4963 49.5071 16.4375 51.6875C16.3943 53.1673 16.3507 54.6471 16.3066 56.1269C16.1997 59.7512 16.0983 63.3755 16 67C14.3438 67.3822 12.6754 67.7139 11 68C8.31773 65.3178 9.76987 57.5572 9.75974 53.6921C9.75012 51.4708 9.71915 49.2504 9.68748 47.0293C9.60873 36.7182 10.3134 28.691 17.8735 20.9607C26.1093 13.367 35.0862 13.2365 45.6958 13.4031Z" fill="#1E8AE6"/>
<path d="M70.625 49.9375C74.3791 51.1194 75.068 51.7059 77 55C77.6354 58.6229 77.5095 62.2646 77.5 65.9375C77.5283 66.9269 77.5567 67.9162 77.5859 68.9355C77.5988 73.7347 77.5684 76.2139 74.6953 80.1875C72 82 72 82 68.375 82.0625C64.6209 80.8806 63.932 80.2941 62 77C61.3646 73.3771 61.4905 69.7354 61.5 66.0625C61.4716 65.0731 61.4433 64.0838 61.4141 63.0645C61.4011 58.2653 61.4316 55.7861 64.3047 51.8125C67 50 67 50 70.625 49.9375Z" fill="#1E8AE6"/>
<path d="M27.625 49.875C31 51 31 51 32.6875 52.9453C34.5661 57.3176 34.4364 61.2921 34.375 66C34.3866 66.8895 34.3982 67.7789 34.4102 68.6953C34.3885 73.5361 34.3181 77.175 31 81C27.625 82.125 27.625 82.125 24 82C20.9496 79.9339 19.2586 78.2924 18.521 74.606C18.3255 71.7211 18.3182 68.8907 18.375 66C18.3557 65.0152 18.3363 64.0303 18.3164 63.0156C18.3487 58.2418 18.4463 55.7613 21.3125 51.8203C24 50 24 50 27.625 49.875Z" fill="#1E8AE6"/>
</svg>
