<?xml version="1.0" encoding="UTF-8"?>
<svg version="1.1" xmlns="http://www.w3.org/2000/svg" width="96" height="96">
<path d="M0 0 C2.99816343 2.08962905 4.866128 4.50900401 7.0625 7.4375 C7.0625 8.0975 7.0625 8.7575 7.0625 9.4375 C10.6925 9.4375 14.3225 9.4375 18.0625 9.4375 C18.7225 8.1175 19.3825 6.7975 20.0625 5.4375 C21.64148354 3.3513278 23.35056605 1.41973931 25.0625 -0.5625 C30.18344511 -0.23022494 35.39563964 0.142172 40.0625 2.4375 C43.27822028 6.36976665 44.54977964 10.63603265 46.0625 15.4375 C47.03611552 17.77315507 48.01507219 20.10659266 49 22.4375 C50.2762915 25.55992568 51.06985236 27.79508748 51.03125 31.16796875 C50.0625 33.4375 50.0625 33.4375 47.62890625 34.80078125 C46.63761719 35.11402344 45.64632812 35.42726562 44.625 35.75 C43.14193359 36.23919922 43.14193359 36.23919922 41.62890625 36.73828125 C39.0625 37.4375 39.0625 37.4375 37.0625 37.4375 C37.06773682 38.37134521 37.07297363 39.30519043 37.07836914 40.26733398 C37.0953762 43.72062796 37.10793302 47.17387767 37.11743164 50.62719727 C37.12247121 52.12394918 37.12930287 53.62069616 37.13793945 55.11743164 C37.15002159 57.26449807 37.15573191 59.41149962 37.16015625 61.55859375 C37.16539307 62.8520874 37.17062988 64.14558105 37.17602539 65.47827148 C37.0625 68.4375 37.0625 68.4375 36.0625 69.4375 C33.61419574 69.52593793 31.19429401 69.55278752 28.74609375 69.53515625 C28.01503922 69.5337413 27.28398468 69.53232635 26.53077698 69.53086853 C24.18714368 69.52525408 21.84360461 69.51269922 19.5 69.5 C17.91471492 69.49498686 16.32942834 69.49042363 14.74414062 69.48632812 C10.8502239 69.47527997 6.95637795 69.45800572 3.0625 69.4375 C2 67.5625 2 67.5625 1.0625 65.4375 C1.3925 64.7775 1.7225 64.1175 2.0625 63.4375 C11.6325 63.4375 21.2025 63.4375 31.0625 63.4375 C30.90435345 54.02822433 30.90435345 54.02822433 30.70214844 44.61987305 C30.6921582 43.44980713 30.68216797 42.27974121 30.671875 41.07421875 C30.65092773 39.87498779 30.62998047 38.67575684 30.60839844 37.44018555 C31.0625 34.4375 31.0625 34.4375 32.82128906 32.62817383 C36.15284795 30.8582378 39.50091442 29.68405495 43.0625 28.4375 C42.74442383 27.64315552 42.74442383 27.64315552 42.41992188 26.83276367 C41.462139 24.43225457 40.51224557 22.02869968 39.5625 19.625 C39.22863281 18.79162109 38.89476562 17.95824219 38.55078125 17.09960938 C38.23496094 16.29716797 37.91914062 15.49472656 37.59375 14.66796875 C37.30048828 13.92957764 37.00722656 13.19118652 36.70507812 12.43041992 C36.0625 10.4375 36.0625 10.4375 36.0625 7.4375 C34.4125 7.4375 32.7625 7.4375 31.0625 7.4375 C30.75957031 8.18515625 30.45664063 8.9328125 30.14453125 9.703125 C25.85378203 19.78968625 25.85378203 19.78968625 21.0625 22.4375 C20.0725 22.4375 19.0825 22.4375 18.0625 22.4375 C18.07410156 23.00855469 18.08570313 23.57960938 18.09765625 24.16796875 C18.30666796 42.94916407 18.30666796 42.94916407 16.0625 47.4375 C13.1875 47.5625 13.1875 47.5625 10.0625 47.4375 C7.50113779 44.87613779 7.76583143 43.77188669 7.6484375 40.2109375 C7.59042969 38.6640625 7.59042969 38.6640625 7.53125 37.0859375 C7.5003125 36.00570312 7.469375 34.92546875 7.4375 33.8125 C7.37949219 32.18054687 7.37949219 32.18054687 7.3203125 30.515625 C7.22583753 27.82308835 7.14027569 25.13056243 7.0625 22.4375 C6.28132813 22.31503906 5.50015625 22.19257812 4.6953125 22.06640625 C0.97329343 21.17731861 0.10294534 19.6341977 -1.9375 16.4375 C-3.08084063 13.79902163 -4.01259893 11.16595816 -4.9375 8.4375 C-7.37549324 8.58874329 -7.37549324 8.58874329 -9.9375 9.4375 C-11.35270074 11.39366486 -11.35270074 11.39366486 -12.17578125 13.91015625 C-12.52060547 14.80927734 -12.86542969 15.70839844 -13.22070312 16.63476562 C-13.56037109 17.58029297 -13.90003906 18.52582031 -14.25 19.5 C-14.60900391 20.44939453 -14.96800781 21.39878906 -15.33789062 22.37695312 C-16.22259294 24.72436326 -17.08803074 27.07715958 -17.9375 29.4375 C-17.23882812 29.63085938 -16.54015625 29.82421875 -15.8203125 30.0234375 C-14.91023438 30.28382812 -14.00015625 30.54421875 -13.0625 30.8125 C-12.15757813 31.06773438 -11.25265625 31.32296875 -10.3203125 31.5859375 C-7.9375 32.4375 -7.9375 32.4375 -5.9375 34.4375 C-5.76247005 37.01853306 -5.70587721 39.49058163 -5.7421875 42.0703125 C-5.7450174 42.82214813 -5.74784729 43.57398376 -5.75076294 44.34860229 C-5.76197126 46.75339578 -5.78707648 49.15781881 -5.8125 51.5625 C-5.82252898 53.19140088 -5.83165497 54.82030758 -5.83984375 56.44921875 C-5.86191265 60.44545556 -5.89644649 64.44141494 -5.9375 68.4375 C-7.59364657 68.81968767 -9.26207024 69.15145102 -10.9375 69.4375 C-11.9375 68.4375 -11.9375 68.4375 -12.05102539 65.47827148 C-12.04578857 64.18477783 -12.04055176 62.89128418 -12.03515625 61.55859375 C-12.0337413 60.8719313 -12.03232635 60.18526886 -12.03086853 59.47779846 C-12.02525479 57.27682199 -12.01270007 55.07594591 -12 52.875 C-11.99498676 51.38606917 -11.99042355 49.89713676 -11.98632812 48.40820312 C-11.97528093 44.75126925 -11.95800713 41.09439442 -11.9375 37.4375 C-12.88383301 37.28804932 -13.83016602 37.13859863 -14.80517578 36.98461914 C-18.59343677 36.32292835 -21.45835709 35.03790574 -24.9375 33.4375 C-24.46274181 26.18260142 -22.72673532 20.25666477 -19.9375 13.5625 C-19.58816406 12.62664063 -19.23882812 11.69078125 -18.87890625 10.7265625 C-16.14200507 4.13527108 -16.14200507 4.13527108 -12.7578125 2.17480469 C-10.48157359 1.40330896 -8.29972036 0.86800304 -5.9375 0.4375 C-5.2259375 0.24172363 -4.514375 0.04594727 -3.78125 -0.15576172 C-1.9375 -0.5625 -1.9375 -0.5625 0 0 Z " fill="#586274" transform="translate(36.9375,13.5625)"/>
</svg>
