<svg width="96" height="96" viewBox="0 0 96 96" fill="none" xmlns="http://www.w3.org/2000/svg">
<path d="M36.9375 13.5625C39.9357 15.6521 41.8036 18.0715 44 21C44 21.66 44 22.32 44 23C47.63 23 51.26 23 55 23C55.66 21.68 56.32 20.36 57 19C58.579 16.9138 60.2881 14.9822 62 13C67.1209 13.3323 72.3331 13.7047 77 16C80.2157 19.9323 81.4873 24.1985 83 29C83.9736 31.3357 84.9526 33.6691 85.9375 36C87.2138 39.1224 88.0074 41.3576 87.9688 44.7305C87 47 87 47 84.5664 48.3633C83.5751 48.6765 82.5838 48.9898 81.5625 49.3125C80.0794 49.8017 80.0794 49.8017 78.5664 50.3008C76 51 76 51 74 51C74.0052 51.9338 74.0105 52.8677 74.0159 53.8298C74.0329 57.2831 74.0454 60.7364 74.0549 64.1897C74.06 65.6864 74.0668 67.1832 74.0754 68.6799C74.0875 70.827 74.0932 72.974 74.0977 75.1211C74.1029 76.4146 74.1081 77.7081 74.1135 79.0408C74 82 74 82 73 83C70.5517 83.0884 68.1318 83.1153 65.6836 83.0977C64.9525 83.0962 64.2215 83.0948 63.4683 83.0934C61.1246 83.0878 58.7811 83.0752 56.4375 83.0625C54.8522 83.0575 53.2669 83.0529 51.6816 83.0488C47.7877 83.0378 43.8939 83.0205 40 83C38.9375 81.125 38.9375 81.125 38 79C38.33 78.34 38.66 77.68 39 77C48.57 77 58.14 77 68 77C67.8419 67.5907 67.8419 67.5907 67.6396 58.1824C67.6297 57.0123 67.6197 55.8422 67.6094 54.6367C67.5884 53.4375 67.5675 52.2383 67.5459 51.0027C68 48 68 48 69.7588 46.1907C73.0903 44.4207 76.4384 43.2466 80 42C79.6819 41.2057 79.6819 41.2057 79.3574 40.3953C78.3996 37.9948 77.4497 35.5912 76.5 33.1875C76.1661 32.3541 75.8323 31.5207 75.4883 30.6621C75.1725 29.8597 74.8566 29.0572 74.5312 28.2305C74.238 27.4921 73.9447 26.7537 73.6426 25.9929C73 24 73 24 73 21C71.35 21 69.7 21 68 21C67.6971 21.7477 67.3941 22.4953 67.082 23.2656C62.7913 33.3522 62.7913 33.3522 58 36C57.01 36 56.02 36 55 36C55.0116 36.5711 55.0232 37.1421 55.0352 37.7305C55.2442 56.5117 55.2442 56.5117 53 61C50.125 61.125 50.125 61.125 47 61C44.4386 58.4386 44.7033 57.3344 44.5859 53.7734C44.5279 52.2266 44.5279 52.2266 44.4688 50.6484C44.4378 49.5682 44.4069 48.488 44.375 47.375C44.317 45.743 44.317 45.743 44.2578 44.0781C44.1633 41.3856 44.0778 38.6931 44 36C43.2188 35.8775 42.4377 35.7551 41.6328 35.6289C37.9108 34.7398 37.0404 33.1967 35 30C33.8567 27.3615 32.9249 24.7285 32 22C29.562 22.1512 29.562 22.1512 27 23C25.5848 24.9562 25.5848 24.9562 24.7617 27.4727C24.4169 28.3718 24.0721 29.2709 23.7168 30.1973C23.3771 31.1428 23.0375 32.0883 22.6875 33.0625C22.3285 34.0119 21.9695 34.9613 21.5996 35.9395C20.7149 38.2869 19.8495 40.6397 19 43C19.6987 43.1934 20.3973 43.3867 21.1172 43.5859C22.0273 43.8463 22.9373 44.1067 23.875 44.375C24.7799 44.6302 25.6848 44.8855 26.6172 45.1484C29 46 29 46 31 48C31.175 50.581 31.2316 53.0531 31.1953 55.6328C31.1925 56.3846 31.1897 57.1365 31.1867 57.9111C31.1755 60.3159 31.1504 62.7203 31.125 65.125C31.115 66.7539 31.1058 68.3828 31.0977 70.0117C31.0756 74.008 31.0411 78.0039 31 82C29.3439 82.3822 27.6754 82.714 26 83C25 82 25 82 24.8865 79.0408C24.8917 77.7473 24.8969 76.4538 24.9023 75.1211C24.9038 74.4344 24.9052 73.7478 24.9066 73.0403C24.9122 70.8393 24.9248 68.6384 24.9375 66.4375C24.9425 64.9486 24.9471 63.4596 24.9512 61.9707C24.9622 58.3138 24.9795 54.6569 25 51C24.0537 50.8505 23.1073 50.7011 22.1323 50.5471C18.3441 49.8854 15.4791 48.6004 12 47C12.4748 39.7451 14.2108 33.8192 17 27.125C17.3493 26.1891 17.6987 25.2533 18.0586 24.2891C20.7955 17.6978 20.7955 17.6978 24.1797 15.7373C26.4559 14.9658 28.6378 14.4305 31 14C31.7116 13.8042 32.4231 13.6084 33.1562 13.4067C35 13 35 13 36.9375 13.5625Z" fill="#F04135"/>
</svg>
