<?xml version="1.0" encoding="UTF-8"?>
<svg version="1.1" xmlns="http://www.w3.org/2000/svg" width="96" height="96">
<path d="M0 0 C0.625 1.875 0.625 1.875 1 4 C-1.53537568 6.53537568 -3.3978727 6.71785889 -6.875 7.5 C-12.23882659 8.5486498 -12.23882659 8.5486498 -17 11 C-18.13848908 13.85781443 -18.13848908 13.85781443 -18.75 17.125 C-18.99234375 18.22070312 -19.2346875 19.31640625 -19.484375 20.4453125 C-19.65453125 21.28835937 -19.8246875 22.13140625 -20 23 C-18.329375 22.87625 -18.329375 22.87625 -16.625 22.75 C-8.92886047 22.77719484 -1.66906641 26.40259635 4.23828125 31.18359375 C8.96652529 36.05861255 11.26243887 41.7544547 11.625 48.5 C11.20481328 56.32874212 7.9496429 62.50084754 2.3125 67.875 C-6.8207964 75.22323088 -17.61990029 76.86078619 -29 76 C-38.1918157 74.32257864 -44.94136746 70.10481007 -51 63 C-54.92962202 56.53286421 -54.98298997 50.37648673 -54 43 C-51.41815908 35.92594503 -46.64128244 30.54465273 -40 27 C-36.5 26.125 -36.5 26.125 -34 26 C-33.67 27.65 -33.34 29.3 -33 31 C-33.90492187 31.56267578 -33.90492187 31.56267578 -34.828125 32.13671875 C-40.40044062 35.70479827 -44.45200957 38.68287766 -47.3125 44.8125 C-48.38248505 49.7733398 -48.21960549 53.6789515 -45.87109375 58.1484375 C-41.65888916 64.32327693 -36.29159185 67.53897603 -29 69 C-19.71617611 69.84147587 -11.36403725 68.77145196 -3.60546875 63.31640625 C0.43950115 59.92737742 3.6098999 57.07013847 4.30078125 51.6328125 C4.32552725 46.33716928 4.12787238 42.48328375 1 38 C-6.08519735 31.07582986 -12.78351367 29.66592192 -22.3046875 28.4296875 C-25 28 -25 28 -26 27 C-26.7652603 19.86175226 -26.31521959 13.88317205 -22 8 C-15.55248039 1.40594586 -8.97317403 -0.48070575 0 0 Z " fill="#576274" transform="translate(72,10)"/>
<path d="M0 0 C7.87541313 0.57413603 13.89788395 1.69707763 19.21484375 7.83203125 C20.95345139 11.37879084 21.63127013 14.0755435 21.77734375 18.01953125 C20.82091493 20.81524627 20.42435397 21.69602614 17.77734375 23.01953125 C11.33021911 23.56589774 8.07405511 22.75838633 2.77734375 19.01953125 C-1.33140551 15.05752303 -3.00930829 8.57970675 -3.47265625 3.01953125 C-3.11826381 0.18439169 -2.88025657 0.02530981 0 0 Z " fill="#586274" transform="translate(15.22265625,9.98046875)"/>
</svg>
