<?xml version="1.0" encoding="UTF-8"?>
<svg version="1.1" xmlns="http://www.w3.org/2000/svg" width="96" height="96">
<path d="M0 0 C1.65 0 3.3 0 5 0 C6 1 6 1 6.12025452 3.01844788 C6.1169236 4.3474839 6.1169236 4.3474839 6.11352539 5.70336914 C6.11344986 6.70433121 6.11337433 7.70529327 6.11329651 8.73658752 C6.10813522 9.8251152 6.10297394 10.91364288 6.09765625 12.03515625 C6.0962413 13.14354355 6.09482635 14.25193085 6.09336853 15.39390564 C6.08775033 18.95013069 6.07519475 22.50629383 6.0625 26.0625 C6.05748734 28.46679597 6.05292403 30.87109292 6.04882812 33.27539062 C6.03777499 39.18361504 6.02101917 45.0918031 6 51 C9.44647307 50.69800211 9.44647307 50.69800211 13 50 C14.74826006 47.49193749 14.74826006 47.49193749 15.625 44.3125 C18.72662904 35.84073654 22.82461937 31.07866672 31 27 C31.66 27 32.32 27 33 27 C33 18.42 33 9.84 33 1 C34.65 0.67 36.3 0.34 38 0 C39 1 39 1 39.11352539 3.50024414 C39.10828857 4.58426514 39.10305176 5.66828613 39.09765625 6.78515625 C39.09443359 7.95498047 39.09121094 9.12480469 39.08789062 10.33007812 C39.07532227 12.17762695 39.07532227 12.17762695 39.0625 14.0625 C39.05798828 15.29806641 39.05347656 16.53363281 39.04882812 17.80664062 C39.03699608 20.87114117 39.02051173 23.93554721 39 27 C39.9499585 27.30542725 40.89991699 27.61085449 41.87866211 27.92553711 C48.40839072 30.17327552 52.62790833 34.91504624 55.734375 40.97265625 C57.47066807 45.1258264 58.91989748 49.34564424 60.3125 53.625 C60.5794165 54.43670654 60.84633301 55.24841309 61.12133789 56.0847168 C62.59561857 60.83744066 63.45749702 64.96753283 63 70 C60.86320715 73.38939556 59.8225233 74.72582557 56 76 C53.48631945 76.0846817 51.00130626 76.11601885 48.48828125 76.09765625 C47.76005661 76.0962413 47.03183197 76.09482635 46.28153992 76.09336853 C43.95848461 76.08777659 41.63552612 76.07522562 39.3125 76.0625 C37.73632952 76.05748396 36.16015752 76.05292123 34.58398438 76.04882812 C30.72261902 76.0378098 26.86132592 76.02055074 23 76 C21.9375 74.125 21.9375 74.125 21 72 C21.33 71.34 21.66 70.68 22 70 C32.89 69.67 43.78 69.34 55 69 C56.02378207 64.90487174 55.96642022 64.01179003 54.70703125 60.2265625 C54.40603516 59.3190625 54.10503906 58.4115625 53.79492188 57.4765625 C53.47072266 56.53554687 53.14652344 55.59453125 52.8125 54.625 C52.50763672 53.69171875 52.20277344 52.7584375 51.88867188 51.796875 C49.24962349 43.98484916 46.6672329 37.98696111 39 34 C35.73573191 33.2903765 33.93452205 33.50376155 30.984375 35.0703125 C21.95367376 41.19112112 20.00533303 50.67470583 17.37695312 60.75390625 C15.82153009 66.32291408 14.21211092 69.96993263 10 74 C3.83337887 77.43357464 -4.12544072 76.76654914 -10.75 75 C-11.4925 74.67 -12.235 74.34 -13 74 C-12.54593375 66.04601192 -11.12888539 58.67202093 -9 51 C-6.03 51 -3.06 51 0 51 C0 34.17 0 17.34 0 0 Z " fill="#576274" transform="translate(23,10)"/>
</svg>
