<svg width="96" height="96" viewBox="0 0 96 96" fill="none" xmlns="http://www.w3.org/2000/svg">
<path d="M23 10C24.65 10 26.3 10 28 10C29 11 29 11 29.1203 13.0184C29.1169 14.3475 29.1169 14.3475 29.1135 15.7034C29.1134 16.7043 29.1134 17.7053 29.1133 18.7366C29.1081 19.8251 29.103 20.9136 29.0977 22.0352C29.0962 23.1435 29.0948 24.2519 29.0934 25.3939C29.0878 28.9501 29.0752 32.5063 29.0625 36.0625C29.0575 38.4668 29.0529 40.8711 29.0488 43.2754C29.0378 49.1836 29.021 55.0918 29 61C32.4465 60.698 32.4465 60.698 36 60C37.7483 57.4919 37.7483 57.4919 38.625 54.3125C41.7266 45.8407 45.8246 41.0787 54 37C54.66 37 55.32 37 56 37C56 28.42 56 19.84 56 11C57.65 10.67 59.3 10.34 61 10C62 11 62 11 62.1135 13.5002C62.1083 14.5843 62.1031 15.6683 62.0977 16.7852C62.0944 17.955 62.0912 19.1248 62.0879 20.3301C62.0753 22.1776 62.0753 22.1776 62.0625 24.0625C62.058 25.2981 62.0535 26.5336 62.0488 27.8066C62.037 30.8711 62.0205 33.9355 62 37C62.95 37.3054 63.8999 37.6109 64.8787 37.9255C71.4084 40.1733 75.6279 44.915 78.7344 50.9727C80.4707 55.1258 81.9199 59.3456 83.3125 63.625C83.5794 64.4367 83.8463 65.2484 84.1213 66.0847C85.5956 70.8374 86.4575 74.9675 86 80C83.8632 83.3894 82.8225 84.7258 79 86C76.4863 86.0847 74.0013 86.116 71.4883 86.0977C70.7601 86.0962 70.0318 86.0948 69.2815 86.0934C66.9585 86.0878 64.6355 86.0752 62.3125 86.0625C60.7363 86.0575 59.1602 86.0529 57.584 86.0488C53.7226 86.0378 49.8613 86.0206 46 86C44.9375 84.125 44.9375 84.125 44 82C44.33 81.34 44.66 80.68 45 80C55.89 79.67 66.78 79.34 78 79C79.0238 74.9049 78.9664 74.0118 77.707 70.2266C77.406 69.3191 77.105 68.4116 76.7949 67.4766C76.4707 66.5355 76.1465 65.5945 75.8125 64.625C75.5076 63.6917 75.2028 62.7584 74.8887 61.7969C72.2496 53.9848 69.6672 47.987 62 44C58.7357 43.2904 56.9345 43.5038 53.9844 45.0703C44.9537 51.1911 43.0053 60.6747 40.377 70.7539C38.8215 76.3229 37.2121 79.9699 33 84C26.8334 87.4336 18.8746 86.7665 12.25 85C11.5075 84.67 10.765 84.34 10 84C10.4541 76.046 11.8711 68.672 14 61C16.97 61 19.94 61 23 61C23 44.17 23 27.34 23 10Z" fill="#FC6934"/>
</svg>
