<svg width="96" height="96" viewBox="0 0 96 96" fill="none" xmlns="http://www.w3.org/2000/svg">
<path d="M37.3672 9.76167C38.1983 9.7536 39.0295 9.74553 39.8858 9.73721C41.646 9.72337 43.4062 9.71265 45.1665 9.70479C47.8576 9.68757 50.5475 9.64368 53.2383 9.59956C54.9479 9.58944 56.6575 9.58092 58.3672 9.57417C59.5736 9.54791 59.5736 9.54791 60.8044 9.52112C64.3643 9.53493 66.5443 9.67312 69.4771 11.7766C72.1194 15.6341 72.1281 19.1915 72.1453 23.7907C72.1516 24.9555 72.158 26.1203 72.1646 27.3204C72.1657 28.5746 72.1668 29.8288 72.168 31.121C72.173 33.0591 72.173 33.0591 72.1781 35.0363C72.184 37.7691 72.1859 40.5018 72.1853 43.2346C72.1852 46.7293 72.1989 50.2239 72.2161 53.7186C72.2299 57.0611 72.2293 60.4035 72.2305 63.746C72.2377 64.9982 72.2448 66.2504 72.2522 67.5406C72.2492 68.7085 72.2461 69.8765 72.2429 71.0798C72.2443 72.1047 72.2458 73.1297 72.2472 74.1857C71.9172 77.9426 70.9641 80.8263 68.5625 83.75C65.0463 86.5629 60.9713 86.1923 56.6992 86.2382C55.6282 86.2503 55.6282 86.2503 54.5356 86.2627C53.0251 86.2765 51.5147 86.2872 50.0042 86.2951C48.465 86.3066 46.9259 86.3271 45.387 86.3566C43.1574 86.3995 40.9291 86.4155 38.6992 86.4257C38.0178 86.4432 37.3363 86.4608 36.6342 86.4788C31.6487 86.4564 28.8372 85.1193 25 82C23.5089 79.0178 23.8806 76.2839 24 73C25 72 25 72 28.7854 71.8864C30.4728 71.8867 32.1603 71.8922 33.8477 71.9023C35.0256 71.9038 35.0256 71.9038 36.2274 71.9053C39.1725 71.9106 42.1175 71.9246 45.0625 71.9375C51.6419 71.9581 58.2213 71.9787 65 72C64.67 53.85 64.34 35.7 64 17C53.11 17 42.22 17 31 17C30.67 32.18 30.34 47.36 30 63C27.525 63.495 27.525 63.495 25 64C23.4245 62.4244 23.8571 60.8387 23.8389 58.6513C23.8245 57.2642 23.8245 57.2642 23.8098 55.849C23.8055 54.8418 23.8013 53.8346 23.7969 52.7968C23.7912 51.7669 23.7855 50.7369 23.7796 49.6758C23.7701 47.4901 23.7636 45.3043 23.7598 43.1186C23.7501 39.778 23.7191 36.4381 23.6875 33.0976C23.681 30.9765 23.6757 28.8554 23.6719 26.7343C23.6595 25.7352 23.6472 24.7361 23.6345 23.7067C23.6625 14.9346 23.6625 14.9346 27 11C30.2417 9.37908 33.8034 9.79424 37.3672 9.76167Z" fill="#9927AF"/>
<path d="M44.9961 19.8672C45.8018 19.8698 46.6074 19.8723 47.4375 19.875C48.6421 19.8711 48.6421 19.8711 49.8711 19.8672C52 20 52 20 54 21C54 22.65 54 24.3 54 26C50.8729 27.5635 47.4202 27.3996 44 27C43.01 26.34 42.02 25.68 41 25C42.1157 20.0588 42.1157 20.0588 44.9961 19.8672Z" fill="#9927AF"/>
</svg>
