<?xml version="1.0" encoding="UTF-8"?>
<svg version="1.1" xmlns="http://www.w3.org/2000/svg" width="96" height="96">
<path d="M0 0 C0.83113312 -0.00807175 1.66226624 -0.01614349 2.51858521 -0.02445984 C4.27880772 -0.03829946 6.03905705 -0.04902217 7.79931641 -0.05688477 C10.4904258 -0.07410748 13.18030969 -0.11799412 15.87109375 -0.16210938 C17.58072013 -0.17223552 19.29035695 -0.18075187 21 -0.1875 C22.20642654 -0.21376213 22.20642654 -0.21376213 23.43722534 -0.24055481 C26.99706977 -0.22674296 29.17711945 -0.08855478 32.10986328 2.01489258 C34.75217146 5.8724592 34.76095862 9.4298573 34.77807617 14.02905273 C34.78445602 15.19383652 34.79083588 16.3586203 34.79740906 17.55870056 C34.79852188 18.81292313 34.7996347 20.06714569 34.80078125 21.359375 C34.80577385 23.29744774 34.80577385 23.29744774 34.81086731 25.27467346 C34.81684738 28.00742427 34.81870833 30.7401435 34.81811523 33.47290039 C34.8180136 36.96766359 34.83167189 40.46222368 34.84888744 43.95693874 C34.86270462 47.29942053 34.86209672 50.64186502 34.86328125 53.984375 C34.87046677 55.23657333 34.87765228 56.48877167 34.88505554 57.77891541 C34.88197891 58.94685135 34.87890228 60.11478729 34.87573242 61.31811523 C34.87715744 62.34307602 34.87858246 63.3680368 34.88005066 64.42405701 C34.54999641 68.18094743 33.59689146 71.06461991 31.1953125 73.98828125 C27.67907824 76.80126866 23.60411391 76.43066246 19.33203125 76.4765625 C18.26103935 76.48867012 18.26103935 76.48867012 17.16841125 76.50102234 C15.657953 76.51484005 14.14746382 76.52557254 12.63696289 76.53344727 C11.09780685 76.54496377 9.55869064 76.56541073 8.01977539 76.5949707 C5.79025263 76.63778634 3.56191482 76.65383447 1.33203125 76.6640625 C0.65057541 76.68157059 -0.03088043 76.69907867 -0.73298645 76.71711731 C-5.71845006 76.69469729 -8.52993858 75.35765649 -12.3671875 72.23828125 C-13.85825207 69.25615212 -13.48660217 66.52218467 -13.3671875 63.23828125 C-12.3671875 62.23828125 -12.3671875 62.23828125 -8.58178711 62.12475586 C-6.89436022 62.125007 -5.2069282 62.13057013 -3.51953125 62.140625 C-2.34154968 62.14213562 -2.34154968 62.14213562 -1.13977051 62.14367676 C1.80527193 62.14892487 4.75029362 62.16288602 7.6953125 62.17578125 C14.2746875 62.19640625 20.8540625 62.21703125 27.6328125 62.23828125 C27.3028125 44.08828125 26.9728125 25.93828125 26.6328125 7.23828125 C15.7428125 7.23828125 4.8528125 7.23828125 -6.3671875 7.23828125 C-6.6971875 22.41828125 -7.0271875 37.59828125 -7.3671875 53.23828125 C-9.8421875 53.73328125 -9.8421875 53.73328125 -12.3671875 54.23828125 C-13.94273614 52.66273261 -13.51005364 51.07706861 -13.52832031 48.88964844 C-13.54273163 47.50250641 -13.54273163 47.50250641 -13.55743408 46.08734131 C-13.56168396 45.08012024 -13.56593384 44.07289917 -13.5703125 43.03515625 C-13.57601257 42.00521545 -13.58171265 40.97527466 -13.58758545 39.91412354 C-13.59705352 37.72840406 -13.60357657 35.54267019 -13.60742188 33.35693359 C-13.61710614 30.01634633 -13.64810406 26.67637963 -13.6796875 23.3359375 C-13.68621936 21.21484741 -13.69146911 19.09375291 -13.6953125 16.97265625 C-13.7076593 15.9735321 -13.7200061 14.97440796 -13.73272705 13.94500732 C-13.70464227 5.17294339 -13.70464227 5.17294339 -10.3671875 1.23828125 C-7.12544187 -0.38259156 -3.56379561 0.03256767 0 0 Z " fill="#586273" transform="translate(37.3671875,9.76171875)"/>
<path d="M0 0 C0.80566406 0.00257812 1.61132812 0.00515625 2.44140625 0.0078125 C3.64603516 0.00394531 3.64603516 0.00394531 4.875 0 C7.00390625 0.1328125 7.00390625 0.1328125 9.00390625 1.1328125 C9.00390625 2.7828125 9.00390625 4.4328125 9.00390625 6.1328125 C5.87683666 7.6963473 2.42408182 7.53239737 -0.99609375 7.1328125 C-1.98609375 6.4728125 -2.97609375 5.8128125 -3.99609375 5.1328125 C-2.88034678 0.19164734 -2.88034678 0.19164734 0 0 Z " fill="#576373" transform="translate(44.99609375,19.8671875)"/>
</svg>
