<?xml version="1.0" encoding="UTF-8"?>
<svg version="1.1" xmlns="http://www.w3.org/2000/svg" width="96" height="96">
<path d="M0 0 C4.97321344 2.63099034 7.86701443 6.02233082 10.25390625 11.0234375 C11.4634056 16.74107079 10.92544943 21.41078434 8.19140625 26.5859375 C4.74240116 30.70558247 1.50219384 33.90822852 -4.0390625 34.4765625 C-9.75134734 34.59788536 -13.82227124 33.55837823 -19.05859375 31.2734375 C-23.56123004 34.75218664 -27.26891063 37.69383719 -29.05859375 43.2734375 C-29.72491071 49.55183248 -29.7528079 54.92319632 -26.05859375 60.2734375 C-22.42500892 64.737556 -18.5817253 66.89416517 -13.05859375 68.2734375 C-8.92517675 68.69216023 -4.83503825 68.69302342 -0.68359375 68.6484375 C0.92515625 68.66583984 0.92515625 68.66583984 2.56640625 68.68359375 C10.54226185 68.65448479 17.7123113 67.62293469 24.75390625 63.7109375 C30.74467255 57.0355122 33.1102586 49.2881828 33.00390625 40.4609375 C32.99488281 39.48511719 32.98585938 38.50929687 32.9765625 37.50390625 C32.96496094 36.76785156 32.95335938 36.03179687 32.94140625 35.2734375 C31.97203125 35.8303125 31.00265625 36.3871875 30.00390625 36.9609375 C25.67157752 39.43782217 21.30792985 41.85749247 16.94140625 44.2734375 C17.31394531 45.09328125 17.68648437 45.913125 18.0703125 46.7578125 C18.54339844 47.83546875 19.01648438 48.913125 19.50390625 50.0234375 C19.97957031 51.09078125 20.45523438 52.158125 20.9453125 53.2578125 C21.93602165 56.25713587 22.10302404 57.40764991 20.94140625 60.2734375 C13.12278111 60.79467918 5.09182737 59.43103331 -1.12109375 54.3984375 C-3.67398678 51.91288697 -5.34406781 49.84606722 -6.05859375 46.2734375 C-5.63306184 40.84790559 -5.63306184 40.84790559 -3.05859375 38.2734375 C0.47720442 37.64204497 3.68490415 37.1722427 7.26953125 37.4609375 C15.3647866 38.08766695 20.31284292 34.56936857 26.94140625 30.2734375 C30.53454778 28.25309458 30.53454778 28.25309458 33.44140625 28.3984375 C36.58139273 29.49743277 37.86492265 30.67350699 39.94140625 33.2734375 C41.82887408 43.91820091 39.30517749 55.85334504 33.19140625 64.7734375 C28.06179551 70.8825719 21.78949521 74.04381786 13.94140625 75.2734375 C9.14715416 75.60465546 4.37081299 75.64356488 -0.43359375 75.6484375 C-2.32851562 75.68517578 -2.32851562 75.68517578 -4.26171875 75.72265625 C-13.80302137 75.75241083 -21.6347725 74.57243648 -28.93359375 68.0859375 C-35.00622379 61.29550249 -36.81473885 54.55180674 -36.5078125 45.4921875 C-35.38277545 37.43105248 -31.17195208 31.43582898 -25.05859375 26.2734375 C-24.39859375 26.2734375 -23.73859375 26.2734375 -23.05859375 26.2734375 C-23.13076682 24.31013958 -23.13076682 24.31013958 -24.05859375 22.2734375 C-26.57141004 21.05579121 -26.57141004 21.05579121 -29.55859375 20.2734375 C-32.58984375 19.3984375 -32.58984375 19.3984375 -35.05859375 18.2734375 C-35.95703125 16.28515625 -35.95703125 16.28515625 -36.05859375 14.2734375 C-35.18359375 12.0859375 -35.18359375 12.0859375 -33.05859375 10.2734375 C-31.0625 10.046875 -31.0625 10.046875 -28.74609375 9.9609375 C-25.89306093 9.78089174 -24.51780104 9.67707861 -22.34765625 7.76953125 C-21.36365113 6.52260413 -20.39346977 5.26464219 -19.4375 3.99609375 C-14.867877 -1.71269872 -6.57396191 -2.32022185 0 0 Z M-16.05859375 9.2734375 C-18.74327413 13.30045807 -18.74047112 16.5418738 -18.05859375 21.2734375 C-15.91089216 24.87850803 -13.90463758 26.7054891 -10.05859375 28.2734375 C-6.25903416 28.59969664 -2.55245038 28.35252923 0.6015625 26.07421875 C3.57964935 22.76619808 4.94140625 19.68764953 4.94140625 15.2734375 C3.50486507 11.61025748 1.96793426 8.7943573 -1.05859375 6.2734375 C-7.09966796 4.35180056 -11.2219298 5.02661062 -16.05859375 9.2734375 Z " fill="#B123E6" transform="translate(46.05859375,10.7265625)"/>
<path d="M0 0 C2.5625 0.1875 2.5625 0.1875 4.5625 2.1875 C4.1875 4.8125 4.1875 4.8125 3.5625 7.1875 C1.56295254 7.23004356 -0.43791636 7.22830783 -2.4375 7.1875 C-3.4375 6.1875 -3.4375 6.1875 -3.5625 3.6875 C-3.39599509 0.35740177 -3.31519894 0.2550153 0 0 Z " fill="#B122E6" transform="translate(36.4375,21.8125)"/>
</svg>
